    <svg width="787" height="523" viewBox="0 0 787 523" fill="none" xmlns="http://www.w3.org/2000/svg">
      <path d="M283.766 378.399L552.519 523C557.391 265.592 552.519 1.16587 552.519 1.16587C552.351 10.042 386.54 -4.43227 285.649 -3.86938L283.766 378.399Z" fill="#EAE7F0"/>
      <path d="M785.254 383.676L553.236 519.126C553.236 262.267 553.236 2.32468 553.236 2.32468C553.236 11.1819 700.532 -0.135653 790 2.32468L785.254 383.676Z" fill="#D7C8F3"/>
      <path d="M298.617 384.382L2.71797e-05 520.459C2.71797e-05 243.494 2.71797e-05 -26.8209 2.71797e-05 -26.8209C15.4001 -26.8209 183.953 -29.4739 305.04 -26.8209L298.617 384.382Z" fill="#D7C8F3"/>
      </svg> 