<svg width="238" height="59" viewBox="0 0 238 59" fill="none" xmlns="http://www.w3.org/2000/svg">
<path d="M3.18359 9.47266H9.375V26.2891C9.375 27.6693 9.5638 28.8997 9.94141 29.9805C10.319 31.0482 10.8789 31.9531 11.6211 32.6953C12.3763 33.4375 13.3073 34.0039 14.4141 34.3945C15.5208 34.7721 16.8099 34.9609 18.2812 34.9609C19.7396 34.9609 21.0221 34.7721 22.1289 34.3945C23.2487 34.0039 24.1797 33.4375 24.9219 32.6953C25.6771 31.9531 26.2435 31.0482 26.6211 29.9805C26.9987 28.8997 27.1875 27.6693 27.1875 26.2891V9.47266H33.3789V27.0312C33.3789 29.0365 33.0404 30.8594 32.3633 32.5C31.6862 34.1406 30.7031 35.5469 29.4141 36.7188C28.125 37.8906 26.543 38.7956 24.668 39.4336C22.806 40.0716 20.6771 40.3906 18.2812 40.3906C15.8854 40.3906 13.75 40.0716 11.875 39.4336C10.013 38.7956 8.4375 37.8906 7.14844 36.7188C5.85938 35.5469 4.8763 34.1406 4.19922 32.5C3.52214 30.8594 3.18359 29.0365 3.18359 27.0312V9.47266ZM49.0398 49.4141H43.2586V16.9531H49.0398V19.1211C49.5477 18.7695 50.1466 18.4375 50.8367 18.125C51.5268 17.8125 52.269 17.5391 53.0633 17.3047C53.8576 17.0703 54.6779 16.888 55.5242 16.7578C56.3706 16.6146 57.2169 16.543 58.0633 16.543C60.0164 16.543 61.8068 16.8294 63.4344 17.4023C65.075 17.9753 66.4813 18.7826 67.6531 19.8242C68.825 20.8659 69.7365 22.1159 70.3875 23.5742C71.0516 25.0195 71.3836 26.6211 71.3836 28.3789C71.3836 30.2148 71.0385 31.875 70.3484 33.3594C69.6583 34.8307 68.7013 36.0938 67.4773 37.1484C66.2664 38.1901 64.8211 38.9974 63.1414 39.5703C61.4747 40.1302 59.6648 40.4102 57.7117 40.4102C56.8784 40.4102 56.0516 40.3581 55.2313 40.2539C54.424 40.1497 53.6427 40.0065 52.8875 39.8242C52.1453 39.6419 51.4422 39.4271 50.7781 39.1797C50.1271 38.9193 49.5477 38.6393 49.0398 38.3398V49.4141ZM49.0398 32.7539C49.6258 33.2227 50.2443 33.6198 50.8953 33.9453C51.5464 34.2708 52.2104 34.5378 52.8875 34.7461C53.5646 34.9544 54.2482 35.1107 54.9383 35.2148C55.6284 35.306 56.299 35.3516 56.95 35.3516C58.2781 35.3516 59.4565 35.1758 60.4852 34.8242C61.5268 34.4596 62.3992 33.9648 63.1023 33.3398C63.8185 32.7148 64.3654 31.9792 64.743 31.1328C65.1206 30.2865 65.3094 29.3685 65.3094 28.3789C65.3094 27.4544 65.1206 26.582 64.743 25.7617C64.3784 24.9414 63.8445 24.2253 63.1414 23.6133C62.4513 22.9883 61.6115 22.5 60.6219 22.1484C59.6453 21.7839 58.5451 21.6016 57.3211 21.6016C56.5398 21.6016 55.7586 21.6797 54.9773 21.8359C54.1961 21.9792 53.4409 22.1875 52.7117 22.4609C51.9956 22.7344 51.3185 23.0664 50.6805 23.457C50.0555 23.8477 49.5086 24.2839 49.0398 24.7656V32.7539ZM78.9781 24.6484C78.9781 22.3438 79.4013 20.2344 80.2477 18.3203C81.094 16.4062 82.2789 14.7656 83.8023 13.3984C85.3388 12.0182 87.1747 10.9505 89.3102 10.1953C91.4586 9.4401 93.8349 9.0625 96.4391 9.0625C99.0302 9.0625 101.4 9.4401 103.548 10.1953C105.697 10.9505 107.533 12.0182 109.056 13.3984C110.593 14.7656 111.784 16.4062 112.63 18.3203C113.477 20.2344 113.9 22.3438 113.9 24.6484C113.9 26.7057 113.561 28.6133 112.884 30.3711C112.22 32.1159 111.276 33.6654 110.052 35.0195L115.541 40H107.689L105.795 38.2812C104.466 38.9844 103.021 39.5182 101.459 39.8828C99.8961 40.2474 98.2229 40.4297 96.4391 40.4297C93.8349 40.4297 91.4586 40.0456 89.3102 39.2773C87.1747 38.4961 85.3388 37.4089 83.8023 36.0156C82.2789 34.6224 81.094 32.9622 80.2477 31.0352C79.4013 29.0951 78.9781 26.9661 78.9781 24.6484ZM85.1695 24.6484C85.1695 26.224 85.4495 27.6432 86.0094 28.9062C86.5823 30.1693 87.3701 31.25 88.3727 32.1484C89.3883 33.0339 90.5797 33.7174 91.9469 34.1992C93.3271 34.681 94.8245 34.9219 96.4391 34.9219C98.1708 34.9219 99.7529 34.6484 101.185 34.1016L92.4352 26.1719H100.287L105.599 30.9961C106.263 30.1497 106.778 29.1992 107.142 28.1445C107.52 27.0768 107.709 25.9115 107.709 24.6484C107.709 23.0729 107.422 21.6602 106.849 20.4102C106.276 19.1602 105.489 18.1055 104.486 17.2461C103.483 16.3737 102.292 15.7096 100.912 15.2539C99.5445 14.7982 98.0536 14.5703 96.4391 14.5703C94.8245 14.5703 93.3271 14.7982 91.9469 15.2539C90.5797 15.7096 89.3883 16.3737 88.3727 17.2461C87.3701 18.1055 86.5823 19.1602 86.0094 20.4102C85.4495 21.6602 85.1695 23.0729 85.1695 24.6484ZM123.252 16.9336H129.014V28.1836C129.014 29.2513 129.131 30.2279 129.366 31.1133C129.6 31.9857 129.997 32.7344 130.557 33.3594C131.13 33.9844 131.885 34.4727 132.823 34.8242C133.773 35.1628 134.952 35.332 136.358 35.332C137.022 35.332 137.692 35.2604 138.37 35.1172C139.06 34.974 139.717 34.7786 140.342 34.5312C140.967 34.2708 141.547 33.9648 142.08 33.6133C142.627 33.2617 143.096 32.8776 143.487 32.4609V16.9336H149.268V40H143.487V38.0273C142.067 38.8737 140.642 39.4792 139.209 39.8438C137.777 40.2083 136.416 40.3906 135.127 40.3906C133.018 40.3906 131.208 40.1367 129.698 39.6289C128.2 39.1211 126.97 38.3854 126.006 37.4219C125.056 36.4453 124.359 35.2539 123.916 33.8477C123.474 32.4284 123.252 30.8138 123.252 29.0039V16.9336ZM162.859 13.8086C162.286 13.8086 161.765 13.7305 161.296 13.5742C160.84 13.4049 160.45 13.1836 160.124 12.9102C159.799 12.6237 159.545 12.2982 159.363 11.9336C159.193 11.556 159.109 11.1589 159.109 10.7422C159.109 10.3125 159.193 9.91536 159.363 9.55078C159.545 9.17318 159.799 8.84766 160.124 8.57422C160.45 8.30078 160.84 8.08594 161.296 7.92969C161.765 7.76042 162.286 7.67578 162.859 7.67578C163.445 7.67578 163.965 7.76042 164.421 7.92969C164.89 8.08594 165.287 8.30078 165.613 8.57422C165.938 8.84766 166.185 9.17318 166.355 9.55078C166.537 9.91536 166.628 10.3125 166.628 10.7422C166.628 11.1589 166.537 11.556 166.355 11.9336C166.185 12.2982 165.938 12.6237 165.613 12.9102C165.287 13.1836 164.89 13.4049 164.421 13.5742C163.965 13.7305 163.445 13.8086 162.859 13.8086ZM159.968 16.9531H165.749V40H159.968V16.9531ZM187.484 21.7578H175.668V16.9531H198.207L183.988 35.1953H197.426V40H173.363L187.484 21.7578Z" fill="black"/>
<path d="M3.18359 9.47266V8.47266H2.18359V9.47266H3.18359ZM9.375 9.47266H10.375V8.47266H9.375V9.47266ZM9.94141 29.9805L8.99736 30.3103L8.99863 30.3139L9.94141 29.9805ZM11.6211 32.6953L10.914 33.4024L10.9202 33.4085L11.6211 32.6953ZM14.4141 34.3945L14.0812 35.3376L14.0912 35.341L14.4141 34.3945ZM22.1289 34.3945L22.4518 35.341L22.4583 35.3387L22.1289 34.3945ZM24.9219 32.6953L24.2209 31.9821L24.2148 31.9882L24.9219 32.6953ZM26.6211 29.9805L27.5639 30.3139L27.5651 30.3103L26.6211 29.9805ZM27.1875 9.47266V8.47266H26.1875V9.47266H27.1875ZM33.3789 9.47266H34.3789V8.47266H33.3789V9.47266ZM24.668 39.4336L24.3458 38.4869L24.3438 38.4876L24.668 39.4336ZM11.875 39.4336L11.5508 40.3796L11.5529 40.3803L11.875 39.4336ZM3.18359 10.4727H9.375V8.47266H3.18359V10.4727ZM8.375 9.47266V26.2891H10.375V9.47266H8.375ZM8.375 26.2891C8.375 27.7592 8.576 29.1043 8.99737 30.3103L10.8854 29.6506C10.5516 28.6952 10.375 27.5793 10.375 26.2891H8.375ZM8.99863 30.3139C9.42195 31.5109 10.0582 32.5466 10.914 33.4024L12.3282 31.9882C11.6996 31.3596 11.2161 30.5855 10.8842 29.647L8.99863 30.3139ZM10.9202 33.4085C11.7906 34.264 12.8515 34.9035 14.0812 35.3375L14.7469 33.4515C13.7631 33.1043 12.962 32.611 12.322 31.9821L10.9202 33.4085ZM14.0912 35.341C15.3248 35.7618 16.7271 35.9609 18.2812 35.9609V33.9609C16.8926 33.9609 15.7169 33.7824 14.737 33.4481L14.0912 35.341ZM18.2812 35.9609C19.8234 35.9609 21.219 35.7616 22.4518 35.341L21.806 33.4481C20.8252 33.7827 19.6557 33.9609 18.2812 33.9609V35.9609ZM22.4583 35.3387C23.7017 34.905 24.7673 34.2641 25.629 33.4024L24.2148 31.9882C23.5921 32.6109 22.7957 33.1028 21.7995 33.4503L22.4583 35.3387ZM25.6228 33.4085C26.4939 32.5525 27.1392 31.5148 27.5639 30.3139L25.6783 29.647C25.3478 30.5816 24.8603 31.3538 24.2209 31.9821L25.6228 33.4085ZM27.5651 30.3103C27.9865 29.1043 28.1875 27.7592 28.1875 26.2891H26.1875C26.1875 27.5793 26.0109 28.6952 25.6771 29.6506L27.5651 30.3103ZM28.1875 26.2891V9.47266H26.1875V26.2891H28.1875ZM27.1875 10.4727H33.3789V8.47266H27.1875V10.4727ZM32.3789 9.47266V27.0312H34.3789V9.47266H32.3789ZM32.3789 27.0312C32.3789 28.9225 32.06 30.6136 31.4389 32.1185L33.2877 32.8815C34.0207 31.1052 34.3789 29.1504 34.3789 27.0312H32.3789ZM31.4389 32.1185C30.8171 33.6252 29.919 34.9083 28.7414 35.9788L30.0867 37.4587C31.4873 36.1855 32.5553 34.6561 33.2877 32.8815L31.4389 32.1185ZM28.7414 35.9788C27.5667 37.0467 26.1088 37.887 24.3458 38.4869L24.9901 40.3803C26.9772 39.7041 28.6833 38.7346 30.0867 37.4587L28.7414 35.9788ZM24.3438 38.4876C22.606 39.0831 20.5899 39.3906 18.2812 39.3906V41.3906C20.7642 41.3906 23.006 41.0602 24.9921 40.3796L24.3438 38.4876ZM18.2812 39.3906C15.9728 39.3906 13.9493 39.0831 12.1971 38.4869L11.5529 40.3803C13.5507 41.0601 15.7981 41.3906 18.2812 41.3906V39.3906ZM12.1992 38.4876C10.4495 37.888 8.99696 37.0478 7.82111 35.9788L6.47576 37.4587C7.87804 38.7335 9.57658 39.7031 11.5508 40.3796L12.1992 38.4876ZM7.82111 35.9788C6.64351 34.9083 5.74539 33.6252 5.12359 32.1185L3.27484 32.8815C4.00722 34.6561 5.07524 36.1855 6.47576 37.4587L7.82111 35.9788ZM5.12359 32.1185C4.50251 30.6136 4.18359 28.9225 4.18359 27.0312H2.18359C2.18359 29.1504 2.54176 31.1052 3.27484 32.8815L5.12359 32.1185ZM4.18359 27.0312V9.47266H2.18359V27.0312H4.18359ZM49.0398 49.4141V50.4141H50.0398V49.4141H49.0398ZM43.2586 49.4141H42.2586V50.4141H43.2586V49.4141ZM43.2586 16.9531V15.9531H42.2586V16.9531H43.2586ZM49.0398 16.9531H50.0398V15.9531H49.0398V16.9531ZM49.0398 19.1211H48.0398V21.0297L49.6091 19.9433L49.0398 19.1211ZM55.5242 16.7578L55.6763 17.7462L55.6837 17.745L55.6911 17.7438L55.5242 16.7578ZM63.4344 17.4023L63.1023 18.3456L63.1047 18.3464L63.4344 17.4023ZM67.6531 19.8242L68.3175 19.0768L67.6531 19.8242ZM70.3875 23.5742L69.4743 23.9819L69.4788 23.9917L70.3875 23.5742ZM70.3484 33.3594L71.2538 33.784L71.2552 33.781L70.3484 33.3594ZM67.4773 37.1484L68.1295 37.9065L68.1301 37.906L67.4773 37.1484ZM63.1414 39.5703L63.4599 40.5183L63.4642 40.5168L63.1414 39.5703ZM55.2313 40.2539L55.1033 41.2457L55.1053 41.2459L55.2313 40.2539ZM52.8875 39.8242L52.649 40.7954L52.6529 40.7963L52.8875 39.8242ZM50.7781 39.1797L50.4067 40.1082L50.4178 40.1126L50.429 40.1168L50.7781 39.1797ZM49.0398 38.3398L49.5478 37.4785L48.0398 36.5892V38.3398H49.0398ZM49.0398 32.7539H48.0398V33.2345L48.4151 33.5348L49.0398 32.7539ZM54.9383 35.2148L54.789 36.2036L54.7982 36.205L54.8073 36.2062L54.9383 35.2148ZM60.4852 34.8242L60.8086 35.7705L60.8155 35.7681L60.4852 34.8242ZM63.1023 33.3398L62.4448 32.5864L62.438 32.5924L63.1023 33.3398ZM64.743 25.7617L63.8291 26.1679L63.8346 26.1799L64.743 25.7617ZM63.1414 23.6133L62.4701 24.3545L62.4774 24.3611L62.4849 24.3676L63.1414 23.6133ZM60.6219 22.1484L60.2721 23.0853L60.2796 23.0881L60.2871 23.0907L60.6219 22.1484ZM54.9773 21.8359L55.1577 22.8195L55.1656 22.8181L55.1735 22.8165L54.9773 21.8359ZM52.7117 22.4609L52.3606 21.5246L52.355 21.5267L52.7117 22.4609ZM50.6805 23.457L50.1583 22.6041L50.1505 22.609L50.6805 23.457ZM49.0398 24.7656L48.3231 24.0683L48.0398 24.3594V24.7656H49.0398ZM49.0398 48.4141H43.2586V50.4141H49.0398V48.4141ZM44.2586 49.4141V16.9531H42.2586V49.4141H44.2586ZM43.2586 17.9531H49.0398V15.9531H43.2586V17.9531ZM48.0398 16.9531V19.1211H50.0398V16.9531H48.0398ZM49.6091 19.9433C50.0578 19.6326 50.6021 19.329 51.2492 19.036L50.4242 17.214C49.6911 17.546 49.0375 17.9064 48.4706 18.2989L49.6091 19.9433ZM51.2492 19.036C51.8937 18.7441 52.5922 18.4863 53.3463 18.2638L52.7803 16.3456C51.9458 16.5918 51.16 16.8809 50.4242 17.214L51.2492 19.036ZM53.3463 18.2638C54.0962 18.0425 54.8727 17.8698 55.6763 17.7462L55.3722 15.7694C54.483 15.9062 53.6189 16.0981 52.7803 16.3456L53.3463 18.2638ZM55.6911 17.7438C56.4831 17.6098 57.2736 17.543 58.0633 17.543V15.543C57.1602 15.543 56.2581 15.6194 55.3574 15.7718L55.6911 17.7438ZM58.0633 17.543C59.9181 17.543 61.5945 17.8148 63.1023 18.3456L63.7664 16.4591C62.0191 15.844 60.1148 15.543 58.0633 15.543V17.543ZM63.1047 18.3464C64.6354 18.881 65.9246 19.6257 66.9888 20.5716L68.3175 19.0768C67.0379 17.9394 65.5146 17.0696 63.7641 16.4583L63.1047 18.3464ZM66.9888 20.5716C68.0525 21.5172 68.8801 22.6507 69.4744 23.9819L71.3006 23.1666C70.5928 21.5811 69.5975 20.2146 68.3175 19.0768L66.9888 20.5716ZM69.4788 23.9917C70.0766 25.2929 70.3836 26.7499 70.3836 28.3789H72.3836C72.3836 26.4923 72.0265 24.7462 71.2962 23.1567L69.4788 23.9917ZM70.3836 28.3789C70.3836 30.087 70.0633 31.6007 69.4416 32.9378L71.2552 33.781C72.0138 32.1493 72.3836 30.3427 72.3836 28.3789H70.3836ZM69.4431 32.9347C68.8124 34.2793 67.9412 35.4287 66.8246 36.3909L68.1301 37.906C69.4614 36.7588 70.5042 35.3821 71.2538 33.784L69.4431 32.9347ZM66.8252 36.3903C65.7212 37.34 64.3909 38.0876 62.8186 38.6239L63.4642 40.5168C65.2513 39.9072 66.8116 39.0402 68.1295 37.9065L66.8252 36.3903ZM62.823 38.6224C61.2696 39.1442 59.5685 39.4102 57.7117 39.4102V41.4102C59.7612 41.4102 61.6799 41.1162 63.4599 40.5183L62.823 38.6224ZM57.7117 39.4102C56.9202 39.4102 56.1354 39.3607 55.3572 39.2619L55.1053 41.2459C55.9677 41.3555 56.8366 41.4102 57.7117 41.4102V39.4102ZM55.3592 39.2621C54.5861 39.1624 53.8405 39.0255 53.1221 38.8521L52.6529 40.7963C53.4449 40.9875 54.2618 41.1371 55.1033 41.2457L55.3592 39.2621ZM53.126 38.8531C52.4184 38.6793 51.7524 38.4755 51.1272 38.2426L50.429 40.1168C51.1319 40.3786 51.8722 40.6046 52.649 40.7954L53.126 38.8531ZM51.1495 38.2512C50.5371 38.0062 50.0046 37.7479 49.5478 37.4785L48.5319 39.2012C49.0907 39.5308 49.7171 39.8323 50.4067 40.1082L51.1495 38.2512ZM48.0398 38.3398V49.4141H50.0398V38.3398H48.0398ZM48.4151 33.5348C49.0544 34.0462 49.7321 34.4818 50.4481 34.8397L51.3425 33.0509C50.7564 32.7578 50.1972 32.3992 49.6645 31.973L48.4151 33.5348ZM50.4481 34.8397C51.1471 35.1892 51.8623 35.4769 52.5934 35.7019L53.1816 33.7903C52.5586 33.5986 51.9457 33.3524 51.3425 33.0509L50.4481 34.8397ZM52.5934 35.7019C53.3172 35.9246 54.0492 36.092 54.789 36.2036L55.0875 34.226C54.4472 34.1294 53.812 33.9843 53.1816 33.7903L52.5934 35.7019ZM54.8073 36.2062C55.5379 36.3027 56.2523 36.3516 56.95 36.3516V34.3516C56.3456 34.3516 55.7189 34.3093 55.0692 34.2235L54.8073 36.2062ZM56.95 36.3516C58.3646 36.3516 59.6557 36.1645 60.8086 35.7705L60.1618 33.878C59.2574 34.187 58.1916 34.3516 56.95 34.3516V36.3516ZM60.8155 35.7681C61.9593 35.3678 62.9508 34.8125 63.7667 34.0873L62.438 32.5924C61.8477 33.1172 61.0944 33.5515 60.1548 33.8804L60.8155 35.7681ZM63.7599 34.0933C64.5825 33.3754 65.2179 32.5226 65.6562 31.5403L63.8297 30.7254C63.5128 31.4358 63.0545 32.0543 62.4448 32.5864L63.7599 34.0933ZM65.6562 31.5403C66.0948 30.5571 66.3094 29.4992 66.3094 28.3789H64.3094C64.3094 29.2378 64.1463 30.0158 63.8297 30.7254L65.6562 31.5403ZM66.3094 28.3789C66.3094 27.3136 66.0908 26.2982 65.6514 25.3436L63.8346 26.1799C64.1504 26.8659 64.3094 27.5953 64.3094 28.3789H66.3094ZM65.6568 25.3556C65.2306 24.3967 64.6069 23.5631 63.7979 22.859L62.4849 24.3676C63.0822 24.8875 63.5262 25.4862 63.8292 26.1679L65.6568 25.3556ZM63.8127 22.8721C63.013 22.1479 62.0547 21.5962 60.9566 21.2061L60.2871 23.0907C61.1682 23.4038 61.8896 23.8287 62.4701 24.3545L63.8127 22.8721ZM60.9716 21.2116C59.8656 20.7987 58.6441 20.6016 57.3211 20.6016V22.6016C58.446 22.6016 59.4251 22.769 60.2721 23.0853L60.9716 21.2116ZM57.3211 20.6016C56.4727 20.6016 55.6258 20.6864 54.7812 20.8554L55.1735 22.8165C55.8914 22.6729 56.607 22.6016 57.3211 22.6016V20.6016ZM54.797 20.8523C53.9587 21.006 53.1463 21.23 52.3606 21.5246L53.0628 23.3973C53.7355 23.145 54.4335 22.9523 55.1577 22.8195L54.797 20.8523ZM52.355 21.5267C51.5828 21.8216 50.8501 22.1806 50.1583 22.6042L51.2026 24.3099C51.7868 23.9522 52.4084 23.6472 53.0684 23.3952L52.355 21.5267ZM50.1505 22.609C49.4639 23.0381 48.8529 23.5237 48.3231 24.0683L49.7566 25.463C50.1643 25.044 50.6471 24.6572 51.2105 24.305L50.1505 22.609ZM48.0398 24.7656V32.7539H50.0398V24.7656H48.0398ZM83.8023 13.3984L84.4703 14.1427L84.4706 14.1424L83.8023 13.3984ZM89.3102 10.1953L88.9785 9.2519L88.9767 9.25253L89.3102 10.1953ZM109.056 13.3984L108.385 14.1396L108.391 14.1455L109.056 13.3984ZM112.884 30.3711L111.951 30.0116L111.95 30.0154L112.884 30.3711ZM110.052 35.0195L109.31 34.349L108.641 35.0894L109.38 35.7601L110.052 35.0195ZM115.541 40V41H118.131L116.213 39.2595L115.541 40ZM107.689 40L107.017 40.7406L107.303 41H107.689V40ZM105.795 38.2812L106.466 37.5406L105.947 37.0692L105.327 37.3975L105.795 38.2812ZM89.3102 39.2773L88.9666 40.2165L88.9735 40.219L89.3102 39.2773ZM83.8023 36.0156L83.1275 36.7536L83.1306 36.7564L83.8023 36.0156ZM80.2477 31.0352L79.3311 31.435L79.3321 31.4373L80.2477 31.0352ZM86.0094 28.9062L85.0951 29.3115L85.0987 29.3193L86.0094 28.9062ZM88.3727 32.1484L87.7052 32.8932L87.7155 32.9022L88.3727 32.1484ZM91.9469 34.1992L91.6145 35.1424L91.6173 35.1434L91.9469 34.1992ZM101.185 34.1016L101.542 35.0358L103.064 34.4546L101.857 33.3606L101.185 34.1016ZM92.4352 26.1719V25.1719H89.8426L91.7636 26.9129L92.4352 26.1719ZM100.287 26.1719L100.959 25.4316L100.673 25.1719H100.287V26.1719ZM105.599 30.9961L104.927 31.7364L105.723 32.4589L106.386 31.6134L105.599 30.9961ZM107.142 28.1445L106.199 27.8111L106.197 27.8178L107.142 28.1445ZM104.486 17.2461L103.829 18.0005L103.835 18.0054L104.486 17.2461ZM100.912 15.2539L100.595 16.2026L100.598 16.2035L100.912 15.2539ZM91.9469 15.2539L91.6333 14.3043L91.6306 14.3052L91.9469 15.2539ZM88.3727 17.2461L89.0235 18.0054L89.0242 18.0047L88.3727 17.2461ZM86.0094 20.4102L85.1003 19.9935L85.0967 20.0014L86.0094 20.4102ZM79.9781 24.6484C79.9781 22.4688 80.3777 20.499 81.1622 18.7247L79.3331 17.9159C78.4249 19.9697 77.9781 22.2187 77.9781 24.6484H79.9781ZM81.1622 18.7247C81.9527 16.9371 83.0546 15.4132 84.4703 14.1427L83.1344 12.6542C81.5033 14.1181 80.2354 15.8754 79.3331 17.9159L81.1622 18.7247ZM84.4706 14.1424C85.9005 12.8579 87.6197 11.8538 89.6436 11.1381L88.9767 9.25253C86.7298 10.0472 84.7771 11.1786 83.1341 12.6545L84.4706 14.1424ZM89.6418 11.1387C91.6696 10.4259 93.9319 10.0625 96.4391 10.0625V8.0625C93.7379 8.0625 91.2476 8.45428 88.9785 9.2519L89.6418 11.1387ZM96.4391 10.0625C98.9326 10.0625 101.189 10.4257 103.217 11.1387L103.88 9.2519C101.611 8.45446 99.1278 8.0625 96.4391 8.0625V10.0625ZM103.217 11.1387C105.253 11.8546 106.97 12.8579 108.385 14.1395L109.728 12.6574C108.095 11.1786 106.141 10.0465 103.88 9.2519L103.217 11.1387ZM108.391 14.1455C109.819 15.4159 110.926 16.9391 111.716 18.7247L113.545 17.9159C112.642 15.8734 111.366 14.1153 109.721 12.6514L108.391 14.1455ZM111.716 18.7247C112.5 20.499 112.9 22.4688 112.9 24.6484H114.9C114.9 22.2187 114.453 19.9697 113.545 17.9159L111.716 18.7247ZM112.9 24.6484C112.9 26.5942 112.58 28.3787 111.951 30.0117L113.818 30.7305C114.543 28.8479 114.9 26.8173 114.9 24.6484H112.9ZM111.95 30.0154C111.329 31.6469 110.449 33.089 109.31 34.349L110.794 35.6901C112.103 34.2417 113.112 32.5849 113.819 30.7268L111.95 30.0154ZM109.38 35.7601L114.869 40.7405L116.213 39.2595L110.724 34.279L109.38 35.7601ZM115.541 39H107.689V41H115.541V39ZM108.361 39.2594L106.466 37.5406L105.123 39.0219L107.017 40.7406L108.361 39.2594ZM105.327 37.3975C104.079 38.0577 102.716 38.5626 101.231 38.909L101.686 40.8567C103.326 40.4738 104.853 39.911 106.262 39.165L105.327 37.3975ZM101.231 38.909C99.7511 39.2544 98.1548 39.4297 96.4391 39.4297V41.4297C98.291 41.4297 100.041 41.2404 101.686 40.8567L101.231 38.909ZM96.4391 39.4297C93.9336 39.4297 91.6731 39.0603 89.6469 38.3357L88.9735 40.219C91.244 41.0309 93.7361 41.4297 96.4391 41.4297V39.4297ZM89.6537 38.3382C87.6278 37.597 85.9061 36.5734 84.4741 35.2748L83.1306 36.7564C84.7715 38.2443 86.7217 39.3952 88.9666 40.2165L89.6537 38.3382ZM84.4772 35.2777C83.0586 33.9803 81.9547 32.4352 81.1632 30.633L79.3321 31.4373C80.2333 33.4893 81.4993 35.2645 83.1275 36.7536L84.4772 35.2777ZM81.1642 30.6353C80.3779 28.8329 79.9781 26.8417 79.9781 24.6484H77.9781C77.9781 27.0906 78.4247 29.3572 79.3311 31.435L81.1642 30.6353ZM84.1695 24.6484C84.1695 26.344 84.4713 27.9041 85.0952 29.3115L86.9236 28.501C86.4277 27.3823 86.1695 26.1039 86.1695 24.6484H84.1695ZM85.0987 29.3193C85.7271 30.7047 86.5963 31.8994 87.7053 32.8932L89.04 31.4037C88.1438 30.6006 87.4375 29.6339 86.9201 28.4932L85.0987 29.3193ZM87.7155 32.9022C88.8335 33.8768 90.1372 34.6218 91.6145 35.1424L92.2792 33.2561C91.0222 32.8131 89.9431 32.1909 89.0298 31.3947L87.7155 32.9022ZM91.6173 35.1434C93.1139 35.6658 94.7239 35.9219 96.4391 35.9219V33.9219C94.925 33.9219 93.5402 33.6962 92.2764 33.2551L91.6173 35.1434ZM96.4391 35.9219C98.2771 35.9219 99.9819 35.6314 101.542 35.0358L100.828 33.1673C99.5238 33.6655 98.0646 33.9219 96.4391 33.9219V35.9219ZM101.857 33.3606L93.1067 25.4309L91.7636 26.9129L100.514 34.8425L101.857 33.3606ZM92.4352 27.1719H100.287V25.1719H92.4352V27.1719ZM99.6145 26.9122L104.927 31.7364L106.271 30.2558L100.959 25.4316L99.6145 26.9122ZM106.386 31.6134C107.121 30.6764 107.688 29.6269 108.087 28.4712L106.197 27.8178C105.867 28.7715 105.405 29.6231 104.812 30.3788L106.386 31.6134ZM108.085 28.478C108.505 27.2916 108.709 26.012 108.709 24.6484H106.709C106.709 25.8109 106.535 26.8621 106.199 27.8111L108.085 28.478ZM108.709 24.6484C108.709 22.95 108.399 21.392 107.758 19.9935L105.94 20.8268C106.445 21.9283 106.709 23.1958 106.709 24.6484H108.709ZM107.758 19.9935C107.128 18.6175 106.254 17.4443 105.137 16.4868L103.835 18.0054C104.723 18.7666 105.425 19.7028 105.94 20.8268L107.758 19.9935ZM105.142 16.4917C104.031 15.5243 102.72 14.7978 101.225 14.3043L100.598 16.2035C101.864 16.6215 102.936 17.2231 103.83 18.0005L105.142 16.4917ZM101.228 14.3052C99.7473 13.8117 98.1483 13.5703 96.4391 13.5703V15.5703C97.959 15.5703 99.3417 15.7847 100.595 16.2026L101.228 14.3052ZM96.4391 13.5703C94.7297 13.5703 93.1253 13.8117 91.6333 14.3043L92.2604 16.2035C93.5289 15.7846 94.9193 15.5703 96.4391 15.5703V13.5703ZM91.6306 14.3052C90.1499 14.7988 88.8424 15.5243 87.7211 16.4875L89.0242 18.0047C89.9342 17.2231 91.0095 16.6205 92.2631 16.2026L91.6306 14.3052ZM87.7219 16.4868C86.6048 17.4443 85.731 18.6175 85.1003 19.9935L86.9184 20.8268C87.4336 19.7028 88.1353 18.7666 89.0235 18.0054L87.7219 16.4868ZM85.0967 20.0014C84.4712 21.3979 84.1695 22.9531 84.1695 24.6484H86.1695C86.1695 23.1927 86.4277 21.9224 86.922 20.8189L85.0967 20.0014ZM123.252 16.9336V15.9336H122.252V16.9336H123.252ZM129.014 16.9336H130.014V15.9336H129.014V16.9336ZM129.366 31.1133L128.399 31.3692L128.4 31.3727L129.366 31.1133ZM130.557 33.3594L129.812 34.0267L129.82 34.0351L130.557 33.3594ZM132.823 34.8242L132.472 35.7605L132.479 35.7635L132.487 35.7663L132.823 34.8242ZM138.37 35.1172L138.166 34.138L138.163 34.1388L138.37 35.1172ZM140.342 34.5312L140.71 35.4611L140.719 35.4578L140.727 35.4543L140.342 34.5312ZM142.08 33.6133L141.54 32.7721L141.53 32.7781L142.08 33.6133ZM143.487 32.4609L144.216 33.1449L144.487 32.8564V32.4609H143.487ZM143.487 16.9336V15.9336H142.487V16.9336H143.487ZM149.268 16.9336H150.268V15.9336H149.268V16.9336ZM149.268 40V41H150.268V40H149.268ZM143.487 40H142.487V41H143.487V40ZM143.487 38.0273H144.487V36.2667L142.975 37.1685L143.487 38.0273ZM129.698 39.6289L129.376 40.5759L129.379 40.5768L129.698 39.6289ZM126.006 37.4219L125.29 38.1194L125.299 38.129L126.006 37.4219ZM123.916 33.8477L122.962 34.1454L122.963 34.1479L123.916 33.8477ZM123.252 17.9336H129.014V15.9336H123.252V17.9336ZM128.014 16.9336V28.1836H130.014V16.9336H128.014ZM128.014 28.1836C128.014 29.3238 128.139 30.3878 128.399 31.3692L130.332 30.8574C130.123 30.0679 130.014 29.1788 130.014 28.1836H128.014ZM128.4 31.3727C128.672 32.3847 129.14 33.2761 129.812 34.0266L131.302 32.6921C130.854 32.1927 130.528 31.5867 130.331 30.8538L128.4 31.3727ZM129.82 34.0351C130.517 34.7954 131.413 35.3637 132.472 35.7605L133.174 33.8879C132.357 33.5816 131.743 33.1734 131.294 32.6837L129.82 34.0351ZM132.487 35.7663C133.579 36.155 134.879 36.332 136.358 36.332V34.332C135.024 34.332 133.968 34.1705 133.158 33.8822L132.487 35.7663ZM136.358 36.332C137.094 36.332 137.834 36.2526 138.576 36.0955L138.163 34.1388C137.551 34.2683 136.949 34.332 136.358 34.332V36.332ZM138.573 36.0963C139.316 35.942 140.029 35.7306 140.71 35.4611L139.974 33.6014C139.405 33.8267 138.803 34.0059 138.166 34.1381L138.573 36.0963ZM140.727 35.4543C141.406 35.1713 142.041 34.8364 142.63 34.4485L141.53 32.7781C141.052 33.0933 140.528 33.3704 139.958 33.6082L140.727 35.4543ZM142.621 34.4545C143.228 34.0644 143.762 33.6291 144.216 33.1449L142.757 31.777C142.43 32.1261 142.027 32.459 141.54 32.7721L142.621 34.4545ZM144.487 32.4609V16.9336H142.487V32.4609H144.487ZM143.487 17.9336H149.268V15.9336H143.487V17.9336ZM148.268 16.9336V40H150.268V16.9336H148.268ZM149.268 39H143.487V41H149.268V39ZM144.487 40V38.0273H142.487V40H144.487ZM142.975 37.1685C141.628 37.9712 140.291 38.5364 138.963 38.8747L139.456 40.8128C140.992 40.4219 142.507 39.7762 143.999 38.8862L142.975 37.1685ZM138.963 38.8747C137.6 39.2216 136.322 39.3906 135.127 39.3906V41.3906C136.511 41.3906 137.955 41.195 139.456 40.8128L138.963 38.8747ZM135.127 39.3906C133.093 39.3906 131.397 39.1452 130.016 38.681L129.379 40.5768C131.019 41.1282 132.943 41.3906 135.127 41.3906V39.3906ZM130.019 38.6819C128.643 38.2155 127.552 37.5536 126.713 36.7148L125.299 38.129C126.387 39.2172 127.757 40.0267 129.376 40.5759L130.019 38.6819ZM126.723 36.7244C125.89 35.8689 125.27 34.817 124.87 33.5474L122.963 34.1479C123.448 35.6909 124.221 37.0218 125.29 38.1194L126.723 36.7244ZM124.871 33.5499C124.464 32.2453 124.252 30.7339 124.252 29.0039H122.252C122.252 30.8937 122.483 32.6115 122.962 34.1454L124.871 33.5499ZM124.252 29.0039V16.9336H122.252V29.0039H124.252ZM161.296 13.5742L160.948 14.5116L160.964 14.5175L160.98 14.5229L161.296 13.5742ZM160.124 12.9102L159.464 13.6609L159.472 13.6685L159.481 13.6759L160.124 12.9102ZM159.363 11.9336L158.45 12.3426L158.459 12.3619L158.468 12.3808L159.363 11.9336ZM159.363 9.55078L158.462 9.11603L158.459 9.12283L158.455 9.12967L159.363 9.55078ZM161.296 7.92969L161.62 8.87563L161.628 8.873L161.636 8.87024L161.296 7.92969ZM164.421 7.92969L164.073 8.86711L164.089 8.87301L164.105 8.87837L164.421 7.92969ZM166.355 9.55078L165.442 9.95984L165.451 9.97911L165.46 9.99799L166.355 9.55078ZM166.355 11.9336L165.454 11.4988L165.451 11.5056L165.448 11.5125L166.355 11.9336ZM165.613 12.9102L166.256 13.6759L166.264 13.6685L166.273 13.6609L165.613 12.9102ZM164.421 13.5742L164.745 14.5202L164.753 14.5175L164.761 14.5148L164.421 13.5742ZM159.968 16.9531V15.9531H158.968V16.9531H159.968ZM165.749 16.9531H166.749V15.9531H165.749V16.9531ZM165.749 40V41H166.749V40H165.749ZM159.968 40H158.968V41H159.968V40ZM162.859 12.8086C162.376 12.8086 161.964 12.7429 161.612 12.6255L160.98 14.5229C161.565 14.7181 162.195 14.8086 162.859 14.8086V12.8086ZM161.644 12.6368C161.281 12.5018 160.994 12.3344 160.767 12.1445L159.481 13.6759C159.906 14.0328 160.4 14.3081 160.948 14.5116L161.644 12.6368ZM160.785 12.1594C160.55 11.9526 160.378 11.7285 160.257 11.4864L158.468 12.3808C158.712 12.8679 159.048 13.2948 159.464 13.6609L160.785 12.1594ZM160.275 11.5245C160.164 11.2765 160.109 11.0189 160.109 10.7422H158.109C158.109 11.2988 158.223 11.8355 158.45 12.3426L160.275 11.5245ZM160.109 10.7422C160.109 10.4477 160.166 10.1956 160.27 9.97189L158.455 9.12967C158.221 9.63515 158.109 10.1773 158.109 10.7422H160.109ZM160.263 9.98553C160.383 9.737 160.549 9.52377 160.767 9.33992L159.481 7.80851C159.049 8.17155 158.707 8.60935 158.462 9.11603L160.263 9.98553ZM160.767 9.33992C160.987 9.15552 161.266 8.99723 161.62 8.87563L160.972 6.98374C160.415 7.17465 159.913 7.44604 159.481 7.80851L160.767 9.33992ZM161.636 8.87024C161.981 8.74571 162.384 8.67578 162.859 8.67578V6.67578C162.187 6.67578 161.549 6.77513 160.956 6.98913L161.636 8.87024ZM162.859 8.67578C163.349 8.67578 163.749 8.74675 164.073 8.86711L164.769 6.99226C164.182 6.77408 163.54 6.67578 162.859 6.67578V8.67578ZM164.105 8.87837C164.473 9.00115 164.755 9.15956 164.969 9.33992L166.256 7.80851C165.819 7.442 165.307 7.17073 164.737 6.981L164.105 8.87837ZM164.969 9.33992C165.183 9.51906 165.336 9.72375 165.442 9.95984L167.267 9.14173C167.035 8.62261 166.693 8.17626 166.256 7.80851L164.969 9.33992ZM165.46 9.99799C165.569 10.2162 165.628 10.4591 165.628 10.7422H167.628C167.628 10.1659 167.505 9.61453 167.249 9.10357L165.46 9.99799ZM165.628 10.7422C165.628 11.0073 165.571 11.2559 165.454 11.4988L167.255 12.3683C167.503 11.856 167.628 11.3104 167.628 10.7422H165.628ZM165.448 11.5125C165.341 11.7416 165.182 11.9573 164.952 12.1594L166.273 13.6609C166.694 13.2901 167.03 12.8547 167.262 12.3547L165.448 11.5125ZM164.969 12.1445C164.748 12.3304 164.458 12.4976 164.081 12.6337L164.761 14.5148C165.321 14.3123 165.826 14.0368 166.256 13.6759L164.969 12.1445ZM164.097 12.6283C163.765 12.742 163.357 12.8086 162.859 12.8086V14.8086C163.532 14.8086 164.166 14.719 164.745 14.5202L164.097 12.6283ZM159.968 17.9531H165.749V15.9531H159.968V17.9531ZM164.749 16.9531V40H166.749V16.9531H164.749ZM165.749 39H159.968V41H165.749V39ZM160.968 40V16.9531H158.968V40H160.968ZM187.484 21.7578L188.275 22.3699L189.523 20.7578H187.484V21.7578ZM175.668 21.7578H174.668V22.7578H175.668V21.7578ZM175.668 16.9531V15.9531H174.668V16.9531H175.668ZM198.207 16.9531L198.996 17.5679L200.254 15.9531H198.207V16.9531ZM183.988 35.1953L183.2 34.5806L181.941 36.1953H183.988V35.1953ZM197.426 35.1953H198.426V34.1953H197.426V35.1953ZM197.426 40V41H198.426V40H197.426ZM173.363 40L172.573 39.3879L171.325 41H173.363V40ZM187.484 20.7578H175.668V22.7578H187.484V20.7578ZM176.668 21.7578V16.9531H174.668V21.7578H176.668ZM175.668 17.9531H198.207V15.9531H175.668V17.9531ZM197.418 16.3384L183.2 34.5806L184.777 35.8101L198.996 17.5679L197.418 16.3384ZM183.988 36.1953H197.426V34.1953H183.988V36.1953ZM196.426 35.1953V40H198.426V35.1953H196.426ZM197.426 39H173.363V41H197.426V39ZM174.154 40.6121L188.275 22.3699L186.694 21.1457L172.573 39.3879L174.154 40.6121Z" fill="black"/>
</svg>
